# xmcd
#
# Track frame offsets: 
#        150
#        17577
#        35638
#        52035
#        68744
#        85654
#        97853
#        116706
#        137539
#        156545
#        171015
#        188151
#        201758
#        217271
#        238012
#        254038
#        272381
#        290210
#        305923
#        321137
#
# Disc length: 4513 seconds
#
# Revision: 0
# Processed by: cddbd v1.5.2PL0 Copyright (c) Steve Scherf et al.
# Submitted via: ExactAudioCopy v1.1
#
DISCID=30119f14
DTITLE=Mireille Mathieu - Une Vie D'Amour - CD 2
DYEAR=2014
DGENRE=Chanson
TTITLE0=Mille Colombes
TTITLE1=A Blue Bayou
TTITLE2=Santa Maria De La Mer
TTITLE3=Je T'Aime Avec Ma Peau
TTITLE4=Un Dernier Mot D'Amour
TTITLE5=Les Pianos Du Paradis
TTITLE6=Une Femme Amoureuse
TTITLE7=Bravo, Tu As Gagné
TTITLE8=Promets-Moi
TTITLE9=Nous, Comme Des Fous
TTITLE10=Nos Souvenirs
TTITLE11=New-York, New-York
TTITLE12=Trois Milliards De Gens Sur Terre
TTITLE13=Chanter
TTITLE14=Made In France
TTITLE15=Après Toi
TTITLE16=Rencontres De Femmes
TTITLE17=L'Enfant Que Je N'Ai Jamais Eu
TTITLE18=Maria Média
TTITLE19=Une Place Dans Mon Cœur
EXTD=
EXTT0=
EXTT1=
EXTT2=
EXTT3=
EXTT4=
EXTT5=
EXTT6=
EXTT7=
EXTT8=
EXTT9=
EXTT10=
EXTT11=
EXTT12=
EXTT13=
EXTT14=
EXTT15=
EXTT16=
EXTT17=
EXTT18=
EXTT19=
PLAYORDER=
